<mxfile host="app.diagrams.net" modified="2024-01-07T17:08:18.187Z" agent="Mozilla/5.0 (Windows NT 10.0; Win64; x64) AppleWebKit/537.36 (KHTML, like Gecko) Chrome/120.0.0.0 Safari/537.36" etag="ql6musvgfk1XDtvJK0jb" version="22.1.17" type="github">
  <diagram name="Page-1" id="6UE9Al6l0HljlkbgYLMW">
    <mxGraphModel dx="209" dy="522" grid="1" gridSize="10" guides="1" tooltips="1" connect="1" arrows="1" fold="1" page="1" pageScale="1" pageWidth="850" pageHeight="1100" math="0" shadow="0">
      <root>
        <mxCell id="0" />
        <mxCell id="1" parent="0" />
        <mxCell id="l2RLwY1Nc7_FA7CBZdxp-1" value="" style="ellipse;html=1;shape=startState;fillColor=#000000;strokeColor=#ff0000;" vertex="1" parent="1">
          <mxGeometry x="410" y="90" width="30" height="30" as="geometry" />
        </mxCell>
        <mxCell id="l2RLwY1Nc7_FA7CBZdxp-2" value="" style="edgeStyle=orthogonalEdgeStyle;html=1;verticalAlign=bottom;endArrow=open;endSize=8;strokeColor=#ff0000;rounded=0;" edge="1" source="l2RLwY1Nc7_FA7CBZdxp-1" parent="1">
          <mxGeometry relative="1" as="geometry">
            <mxPoint x="425" y="180" as="targetPoint" />
          </mxGeometry>
        </mxCell>
        <mxCell id="l2RLwY1Nc7_FA7CBZdxp-3" value="Start the test" style="rounded=1;whiteSpace=wrap;html=1;arcSize=40;fontColor=#000000;fillColor=#ffffc0;strokeColor=#ff0000;" vertex="1" parent="1">
          <mxGeometry x="365" y="180" width="120" height="40" as="geometry" />
        </mxCell>
        <mxCell id="l2RLwY1Nc7_FA7CBZdxp-4" value="" style="edgeStyle=orthogonalEdgeStyle;html=1;verticalAlign=bottom;endArrow=open;endSize=8;strokeColor=#ff0000;rounded=0;" edge="1" source="l2RLwY1Nc7_FA7CBZdxp-3" parent="1">
          <mxGeometry relative="1" as="geometry">
            <mxPoint x="425" y="280" as="targetPoint" />
          </mxGeometry>
        </mxCell>
        <mxCell id="l2RLwY1Nc7_FA7CBZdxp-5" value="Navigate Questions" style="rounded=1;whiteSpace=wrap;html=1;arcSize=40;fontColor=#000000;fillColor=#ffffc0;strokeColor=#ff0000;" vertex="1" parent="1">
          <mxGeometry x="365" y="280" width="120" height="40" as="geometry" />
        </mxCell>
        <mxCell id="l2RLwY1Nc7_FA7CBZdxp-6" value="" style="edgeStyle=orthogonalEdgeStyle;html=1;verticalAlign=bottom;endArrow=open;endSize=8;strokeColor=#ff0000;rounded=0;" edge="1" source="l2RLwY1Nc7_FA7CBZdxp-5" parent="1">
          <mxGeometry relative="1" as="geometry">
            <mxPoint x="425" y="380" as="targetPoint" />
          </mxGeometry>
        </mxCell>
        <mxCell id="l2RLwY1Nc7_FA7CBZdxp-7" value="Submit the test" style="rounded=1;whiteSpace=wrap;html=1;arcSize=40;fontColor=#000000;fillColor=#ffffc0;strokeColor=#ff0000;" vertex="1" parent="1">
          <mxGeometry x="365" y="380" width="120" height="40" as="geometry" />
        </mxCell>
        <mxCell id="l2RLwY1Nc7_FA7CBZdxp-8" value="" style="edgeStyle=orthogonalEdgeStyle;html=1;verticalAlign=bottom;endArrow=open;endSize=8;strokeColor=#ff0000;rounded=0;" edge="1" source="l2RLwY1Nc7_FA7CBZdxp-14" parent="1">
          <mxGeometry relative="1" as="geometry">
            <mxPoint x="425" y="480" as="targetPoint" />
          </mxGeometry>
        </mxCell>
        <mxCell id="l2RLwY1Nc7_FA7CBZdxp-15" value="" style="edgeStyle=orthogonalEdgeStyle;html=1;verticalAlign=bottom;endArrow=open;endSize=8;strokeColor=#ff0000;rounded=0;" edge="1" parent="1" source="l2RLwY1Nc7_FA7CBZdxp-7" target="l2RLwY1Nc7_FA7CBZdxp-14">
          <mxGeometry relative="1" as="geometry">
            <mxPoint x="425" y="480" as="targetPoint" />
            <mxPoint x="425" y="420" as="sourcePoint" />
          </mxGeometry>
        </mxCell>
        <mxCell id="l2RLwY1Nc7_FA7CBZdxp-14" value="" style="ellipse;html=1;shape=endState;fillColor=#000000;strokeColor=#ff0000;" vertex="1" parent="1">
          <mxGeometry x="410" y="470" width="30" height="30" as="geometry" />
        </mxCell>
      </root>
    </mxGraphModel>
  </diagram>
</mxfile>
